<?xml version="1.0" encoding="UTF-8"?>
<svg id="_图层_2" data-name="图层 2" xmlns="http://www.w3.org/2000/svg" xmlns:xlink="http://www.w3.org/1999/xlink" viewBox="0 0 768 768">
  <defs>
    <style>
      .cls-1 {
        fill: #f8802e;
        stroke-width: 14px;
      }

      .cls-1, .cls-2, .cls-3 {
        stroke: #000;
        stroke-miterlimit: 10;
      }

      .cls-4 {
        clip-path: url(#clippath);
      }

      .cls-5, .cls-6 {
        fill: #ddd;
      }

      .cls-7 {
        fill: #000;
      }

      .cls-7, .cls-6, .cls-8 {
        stroke-width: 0px;
      }

      .cls-2 {
        fill: #ffd252;
      }

      .cls-2, .cls-3 {
        stroke-width: 20px;
      }

      .cls-3 {
        fill: #91878f;
      }

      .cls-8 {
        fill: #096ab2;
      }
    </style>
    <clipPath id="clippath">
      <circle class="cls-6" cx="384" cy="384" r="384"/>
    </clipPath>
  </defs>
  <g id="_图层_1-2" data-name="图层 1">
    <circle class="cls-8" cx="384" cy="384" r="384"/>
    <g>
      <circle class="cls-5" cx="384" cy="384" r="384"/>
      <g class="cls-4">
        <ellipse class="cls-2" cx="384" cy="581.83" rx="339.59" ry="391.89"/>
        <g>
          <path class="cls-3" d="M376.46,172.68c.93,1.57,1.71,3.23,2.31,4.98,2.59,7.51,2.5,15.55,2.39,23.43-.44,30.32-.89,60.64-1.33,90.97-26.47,2.21-49.21,19.23-64.61,39.35-15.41,20.12-24.98,43.49-36.68,65.66-11.7,22.17-26.38,44.06-48.64,57.54-32.9,19.93-75.31,17.81-114.45,14.85-11.96-.9-24.49-2-34.47-8.19-17.97-11.14-21.16-33.83-26.1-53.37-4.23-16.69-10.95-33.18-10.49-50.32.66-24.4,15.69-46.22,30.71-66.25,33.38-44.52,70.43-88.39,120.19-116.78,29.2-16.65,63.19-27.09,97.56-27.9,23.87-.57,70.06,3.16,83.62,26.02Z"/>
          <path class="cls-3" d="M391.54,172.68c-.93,1.57-1.71,3.23-2.31,4.98-2.59,7.51-2.5,15.55-2.39,23.43.44,30.32.89,60.64,1.33,90.97,26.47,2.21,49.21,19.23,64.61,39.35,15.41,20.12,24.98,43.49,36.68,65.66,11.7,22.17,26.38,44.06,48.64,57.54,32.9,19.93,75.31,17.81,114.45,14.85,11.96-.9,24.49-2,34.47-8.19,17.97-11.14,21.16-33.83,26.1-53.37,4.23-16.69,10.95-33.18,10.49-50.32-.66-24.4-15.69-46.22-30.71-66.25-33.38-44.52-70.43-88.39-120.19-116.78-29.2-16.65-63.19-27.09-97.56-27.9-23.87-.57-70.06,3.16-83.62,26.02Z"/>
        </g>
      </g>
    </g>
    <g>
      <circle class="cls-7" cx="295.7" cy="491.64" r="17.29"/>
      <circle class="cls-7" cx="446.74" cy="491.64" r="17.29"/>
    </g>
    <path class="cls-1" d="M291.22,579.68c6.39-26.8,72.36-29.78,79.66-30.05,32-1.18,87.99,6.04,93.19,30.05,5.37,24.75-43.08,67.85-92.05,65.36-44.21-2.24-86.49-41.52-80.81-65.36Z"/>
    <path class="cls-1" d="M291.13,579.68c8.48,6.95,39.91,31,86.71,30.9,46.45-.1,77.62-23.92,86.14-30.9"/>
  </g>
</svg>